<?xml version="1.0" encoding="iso-8859-1"?>
<!-- Uploaded to: SVG Repo, www.svgrepo.com, Generator: SVG Repo Mixer Tools -->
<svg fill="#000000" height="800px" width="800px" version="1.1" id="Layer_1" xmlns="http://www.w3.org/2000/svg" xmlns:xlink="http://www.w3.org/1999/xlink" 
	 viewBox="0 0 512 512" xml:space="preserve">
<g>
	<g>
		<path d="M437.02,74.98C388.667,26.628,324.38,0,256,0S123.333,26.628,74.98,74.98C26.628,123.332,0,187.62,0,256
			s26.628,132.668,74.98,181.02C123.333,485.372,187.62,512,256,512s132.667-26.628,181.02-74.98
			C485.372,388.668,512,324.38,512,256S485.372,123.332,437.02,74.98z M256,478.753c-122.827,0-222.753-99.926-222.753-222.753
			S133.173,33.247,256,33.247S478.753,133.173,478.753,256S378.827,478.753,256,478.753z"/>
	</g>
</g>
<g>
	<g>
		<path d="M256,155.986c-55.149,0-100.014,44.865-100.014,100.014S200.851,356.014,256,356.014S356.014,311.149,356.014,256
			S311.149,155.986,256,155.986z M256,322.767c-36.815,0-66.767-29.951-66.767-66.767s29.951-66.767,66.767-66.767
			s66.767,29.951,66.767,66.767S292.815,322.767,256,322.767z"/>
	</g>
</g>
<g>
	<g>
		<circle cx="256" cy="256" r="23.747"/>
	</g>
</g>
<g>
	<g>
		<path d="M393.9,239.377c-9.181,0-16.623,7.443-16.623,16.623c0,66.873-54.405,121.276-121.276,121.276
			c-9.181,0-16.623,7.443-16.623,16.623s7.443,16.623,16.623,16.623c85.204,0,154.523-69.318,154.523-154.523
			C410.523,246.819,403.08,239.377,393.9,239.377z"/>
	</g>
</g>
<g>
	<g>
		<path d="M256,101.477c-85.204,0-154.523,69.318-154.523,154.523c0,9.181,7.443,16.623,16.623,16.623s16.623-7.443,16.623-16.623
			c0-66.872,54.405-121.276,121.276-121.276c9.181,0,16.623-7.443,16.623-16.623S265.181,101.477,256,101.477z"/>
	</g>
</g>
<g>
	<g>
		<path d="M320.293,435.579c-2.324-8.881-11.408-14.199-20.289-11.873c-14.279,3.737-29.084,5.631-44.003,5.631
			c-9.181,0-16.623,7.443-16.623,16.623c0,9.18,7.443,16.623,16.623,16.623c17.757,0,35.393-2.259,52.418-6.714
			C317.3,453.544,322.617,444.461,320.293,435.579z"/>
	</g>
</g>
<g>
	<g>
		<path d="M445.96,239.377c-9.181,0-16.623,7.443-16.623,16.623c0,59.874-30.274,114.721-80.985,146.715
			c-7.764,4.899-10.088,15.165-5.189,22.929c4.901,7.769,15.169,10.085,22.929,5.19c60.419-38.12,96.491-103.478,96.491-174.834
			C462.583,246.819,455.14,239.377,445.96,239.377z"/>
	</g>
</g>
<g>
	<g>
		<path d="M256,49.417c-60.559,0-117.858,26.442-157.203,72.548c-5.959,6.984-5.129,17.477,1.854,23.436
			c6.982,5.959,17.477,5.129,23.436-1.854c33.02-38.693,81.1-60.883,131.913-60.883c9.181,0,16.623-7.443,16.623-16.623
			C272.623,56.86,265.181,49.417,256,49.417z"/>
	</g>
</g>
<g>
	<g>
		<path d="M81.603,178.753c-8.688-2.976-18.137,1.661-21.108,10.349C53.144,210.589,49.417,233.096,49.417,256
			c0,9.181,7.443,16.623,16.623,16.623S82.664,265.181,82.664,256c0-19.234,3.125-38.122,9.287-56.138
			C94.923,191.175,90.289,181.725,81.603,178.753z"/>
	</g>
</g>
</svg>